<?xml version="1.0" encoding="UTF-8"?>
<!DOCTYPE svg PUBLIC "-//W3C//DTD SVG 1.1//EN" "http://www.w3.org/Graphics/SVG/1.1/DTD/svg11.dtd">
<!-- Creator: CorelDRAW 2019 (64-Bit) -->
<svg xmlns="http://www.w3.org/2000/svg" xml:space="preserve" width="800px" height="800px" version="1.1" style="shape-rendering:geometricPrecision; text-rendering:geometricPrecision; image-rendering:optimizeQuality; fill-rule:evenodd; clip-rule:evenodd"
viewBox="0 0 800 800"
 xmlns:xlink="http://www.w3.org/1999/xlink">
 <defs>
  <style type="text/css">
   <![CDATA[
    .fil1 {fill:#fff}
    .fil0 {fill:#fff}
   ]]>
  </style>
 </defs>
 <g id="Capa_x0020_1">
  <metadata id="CorelCorpID_0Corel-Layer"/>
  <path class="fil0" d="M193.62 385.59c0.05,-16.45 -0.37,-16.44 6.33,-17.01 11.81,-1 52.54,0.42 63.79,0.75 1.23,1.79 0.56,0.09 1.27,3.11l0.12 103.86c-6.75,86.93 -14.94,95.64 -40,183.99l-31.56 0.16 0.05 -274.86zm95.04 99.91c0.99,-19.42 0.52,-38.92 0.22,-58.51 -0.24,-15.66 -2.28,-43.55 0,-58.09 18.73,-2.85 74.77,1.21 97.99,0.42l-0.23 150.74c-8.6,-4.93 -36.97,-13.58 -48.61,-17.45 -15.74,-5.22 -34.44,-11.08 -49.37,-17.11zm125.33 174.81c-0.03,-46.31 -2.55,-92.61 -2.69,-138.54l-1.15 -279.04c-0.09,-51.21 -5.19,-81.9 13.92,-125.63l2.86 10.8c12.67,3.18 10.11,-1.72 17.12,-0.79l44.79 16.56c10.15,3.25 20.34,6.79 31.06,10.32 9.82,3.24 21.79,5.49 30.87,8.78 -10.57,31.71 -7.01,29.34 -21.69,32.38 -14.45,2.99 -32.09,4 -40,13.46 -8.49,10.14 -0.58,33.97 0.89,47.33 1.77,15.98 3.34,32.06 5.37,48.1 2.71,21.32 22.49,189.23 19.32,196.58 -3.93,3.82 -10.6,7.05 -15.7,10.22 -38.06,23.65 -33.32,17.35 -33.35,45.64 -0.02,20.22 4.7,88.37 0.4,102.28 -1.65,2.35 -9.1,1.76 -12.2,1.71l-39.82 -0.16zm19.25 -592.21l-0.66 3.16 -3.26 -13.62 -7.72 -1.16c-0.92,3.76 -1.54,11.96 -3.4,7.19 -3.65,3.63 -17.28,47.41 -21.01,57.15 -11.75,30.61 -10.35,32.92 -10.35,68.5 0.01,52 0.02,103.99 0.02,155.99 -23.65,0.15 -205.4,-1.9 -212.52,1.13 -6.9,2.94 -5.15,12.98 -5.12,21.79l-0.01 292.39c-0.06,29.32 1.77,23.8 56.28,24.21 20.17,0.15 17.47,0.76 32.29,-48.1 5.75,-18.99 35.17,-116.35 38.46,-121.21 12.88,3.63 83.64,26.49 92.63,31.12 3.52,161.78 -10.67,136.09 52.9,137.4 31.27,0.65 50.57,9.5 49.15,-44.63 -0.82,-31.45 -2.15,-62.71 -2.3,-94.28l30.18 -18.38c13.03,-7.61 19.16,-11.8 19.75,-31.63 0.68,-23.32 -19.26,-187.25 -24.14,-227.49l-4.46 -43.8c7.77,-2.7 21.99,-4 30.82,-6.16 13.91,-3.41 17.54,-3.8 21.96,-16.94 6.17,-18.31 21.05,-45.08 2.4,-57.35 -7.35,-4.82 -18.53,-6.32 -27.92,-9.54 -19.16,-6.59 -72.16,-24.37 -84.33,-30.96l17.04 -56.57c-31.77,13.64 -25.42,23.07 -33.68,32.46 -0.83,-5.14 -0.04,-7.45 -3,-10.67z"/>
  <path class="fil0" d="M437.58 152.7c12.8,7.23 9.86,5.38 25.14,9.35l4.58 -7.5 -30.4 -10.95 0.68 9.1z"/>
  <path class="fil1" d="M418.2 63.67c1.86,4.77 2.48,-3.43 3.4,-7.19l7.72 1.16 3.26 13.62 0.66 -3.16c0.4,-5.99 -0.95,-6.53 -2.45,-11.99l-10.32 -1.89 -2.27 9.45z"/>
 </g>
</svg>
